<?xml version="1.0" encoding="UTF-8"?>
<svg id="Layer_1" data-name="Layer 1" xmlns="http://www.w3.org/2000/svg" viewBox="0 0 151.02 152">
  <defs>
    <style>
      .cls-1 {
        fill: #5a4596;
      }

      .cls-2 {
        fill: #fff;
      }

      .cls-3 {
        fill: #e6007e;
      }

      .cls-4 {
        fill: #191919;
      }
    </style>
  </defs>
  <ellipse class="cls-2" cx="75.51" cy="76.02" rx="75.51" ry="75.98"/>
  <g>
    <path class="cls-4" d="M48.23,93.38c.07,0,.23-.23.42-.17-1.26,7.41-2.72,14.86-9.74,18.89-3.99,2.29-8.72,4.16-12.86,6.34-2.98,1.57-5.87,3.32-8.83,4.95-.13.06-.25.08-.39.05-.9-.23-6.57-9.27-7.35-10.68C-14.08,69.85,8.15,15.66,55.32,2.76c47.17-12.9,93.57,21.52,95.64,70.3,1.03,24.21-10.11,47.92-29.12,62.67l-.3.04-31.23-14.05,1.28-4.91,20.2-.16c2.31.26,4.03,3.81,6.15,4.72,2.44,1.04,5.65.35,8.26.54.72,1.88,3.81,2.13,4.94.51,2.43-3.48-2.99-6.7-4.95-2.87-2-.25-4.84.34-6.72-.04s-4.78-5.06-6.33-5.06h-21.16c.55-2.03.91-4.76,2.47-6.29.35-.34,2.71-1.9,3.1-2,1.12-.29,5.89.94,7.46,1.13,3.37.39,6.51.06,8.31-3.2s-.29-5.6.32-8.51c.33-1.54,2.48-2.09,2.64-3.32.18-1.45-1.37-1.91-1.33-2.33.07-.79,2.31-1.47,2.52-2.76.26-1.68-1.97-3.98-.14-5.75s4.98.51,6.56-2.61c1.26-2.49-.45-4.06-1.46-6.27-1.89-4.13-3.66-8.31-5.59-12.42-.37-2.2,2.13-4.7,2.33-7.27.26-3.27-1.79-12.47-2.84-15.85C107.3,7.89,68.62-1.27,45.69,17.77c-9.8,8.13-15.29,20.11-14.53,32.96h-7.9c-.43,0-1.74.95-2.13,1.27l-7.65,7.32c-1.41-.43-2.86-.31-3.82.92-2.08,2.66,1.48,6.51,4.25,4.08,1.35-1.18.58-2.25,1.1-3.15,2.68-2.02,4.93-5.28,7.48-7.3.57-.45.86-.7,1.61-.77,2.29-.21,4.85.3,7.13-.14l.24.27c.42,4.36,1.7,8.61,3.62,12.52.61,1.25,1.47,2.39,2.01,3.68l-6.35.15c-4.9-1.5-6.35,3.28-9.36,5.45-1.52,1.1-3.32.56-5.07.69-1.31-3.08-5.74-2.05-5.55,1.26.17,3.09,4.43,3.95,5.73,1.11,1.14-.08,2.41.11,3.53,0,3.43-.35,5.28-4.59,8.02-6.25l10.8-.04c2.46,3.39,6.05,5.88,7.94,9.69h-13c-2.43,0-6.5,6.21-8.92,7.23l-4.98.08c-.47-.67-.96-1.27-1.81-1.46-4.54-.97-4.73,6.07-.28,5.52,1.48-.19,1.8-1.5,2.25-1.66.8-.28,3.45.08,4.56-.03,3.39-.34,6.39-6.06,9.51-7.31l13.53-.09c.91,2.28,1.24,4.79,1.18,7.23h-10.79c-.34,0-1.7.6-2.04.85l-10.16,9.89c-1.69.63-3.66.16-5.44.31-.93-2.54-4.89-2.17-5.34.46-.6,3.52,3.79,4.81,5.35,1.74,1.87-.17,4.24.35,5.99-.26,1.66-.57,5.96-5.54,7.56-7.05.54-.51,3.74-3.56,4.08-3.56,3.23-.27,7.04.37,10.2,0h-.01Z"/>
    <path class="cls-1" d="M73.81,152c-4.88-.24-9.68-.74-14.45-1.78-14.43-3.17-28.47-11.17-38.49-22-.39-.43-2.15-2.32-2.29-2.64-.12-.29.12-.23.22-.29,4.19-2.58,8.75-4.84,13.14-7.08,8.51-4.33,13.56-5.16,16.93-15.19,2.91-8.65,4.04-18.22-1.92-25.87-1.37-1.76-3.13-3.25-4.58-4.94-11.53-13.42-11.75-33.37-.51-47.06,17.31-21.08,51.65-19.44,67.25,2.75,1.21,1.72,2.49,3.81,3.22,5.79,1.85,5.06.05,11.55-2.48,16.13-1.04,1.89-3.57,4.67-3.77,6.6-.16,1.59.31,3.24-.34,4.76-1,2.35-5.29,4.79-5.74,7s.12,6.38.14,8.79c.03,4.43.2,10.12-.37,14.43-.35,2.67-5.52,8.86-8.27,9.07-.68.05-1.86-.39-2.55-.6-2.58-.79-11.36-3.68-13.04-5.14-1.07-.93-1.51-1.71-1.62-3.14-.54-7.26.66-15.41,0-22.6-.3-3.27-2.94-3.64-3.65-5.86-.37-1.14-.42-5.79-.26-7.06.02-.19-.02-.38.17-.51,6.98-1.26,9.12-10.15,3.39-14.42-3.74-2.79-9.25-2.1-11.57,2.07-.13.08-2.27.08-2.61.05-1.06-.11-1.33-1.06-2.12-1.61-1.52-1.06-2.84-.63-4.46-.67-2.74-.07-5.42-.05-8.16.07-1.5-3.46-6.46-1.24-5.12,2.2.6,1.55,2.34,2.11,3.82,1.45.71-.32,1.21-1.37,1.61-1.45,3.13.26,6.8-.35,9.86,0,1.62.18,2.79,2.38,3.74,2.38h2.46c-.39,1.19-.47,2.34-.17,3.57-.58.04-1.19-.06-1.77.02-2.51.33-3.08,3.66-6.13,3.9-2.84.22-5.95-.19-8.82,0-.61-2.29-3.91-2.71-5.04-.61-1.85,3.45,2.78,6.14,4.88,2.81,3.22-.3,7.19.41,10.32,0,.66-.09,1.43-.54,1.95-.93.71-.53,2.21-2.46,2.74-2.7.43-.19,2.34-.4,2.71-.17.19.11,1,1.52,1.35,1.88,1.27,1.29,2.97,1.86,4.69,2.27.28.39-.08,6.41.15,7.67.46,2.5,3.39,3.7,3.65,5.53.18,1.26,0,3.07,0,4.41.07,6-.42,12.34,0,18.35.22,3.11,1.96,5.18,4.7,6.51,3.77,1.83,8.77,3.58,12.76,5.08,1.74.65,3.51,1.29,5.31,1.74.1.39-.08.28-.22.39-1.39,1.1-2.34,1.51-3.21,3.23-2.36,7.64-4.18,15.47-6.41,23.16-.12.68.08,1.34.42,1.93.74,1.28,3.45,3.16,3.86,4.14.43,1.03-.81,2.31,1.06,3.69,2.98,2.2,6.3-1.88,3.83-4.34-1.16-1.15-2.17-.44-3.06-.85-.39-.18-3.36-3.36-3.49-3.81-.53-1.77,1.65-6.52,1.96-8.5l30.07,13.43-.18.41c-10.19,7.26-21.88,11.96-34.31,13.69v-7.39c0-3.02-5.44-5.67-6.55-8.4-.39-5.39.27-11.05-.07-16.42-.1-1.65-.29-3-1.43-4.27-2.47-2.77-5.79-5.29-8.27-8.13-.5-.72-.63-2-.69-2.88-.63-9.89.48-20.46.01-30.43-.25-2.95-3.89-5.78-5.96-7.81-1.05-1.03-1.98-2.46-3.65-2.64-2.17-.23-4.72.17-6.93,0-1.47-3.03-6.02-1.75-5.31,1.71.56,2.71,4.04,3.09,5.31.67,1.23-.02,2.47.03,3.71.01,1.44-.03,2.43-.62,3.82.41,1.08.8,5.03,4.78,5.86,5.86,1.05,1.37.67,2.27.76,3.83.6,9.6-.53,19.78.16,29.23.08,1.1.36,2.49,1.03,3.39,2.15,2.9,6.35,5.67,8.58,8.58.4.51.54.78.6,1.44.38,3.89-.12,8.42-.02,12.42.04,1.44,0,4.46.25,5.7.5,2.4,5.06,5.21,6.38,7.38v7.9l-6.46.34v-6.71c0-2.03-4.7-5-5.53-6.87-.47-4.92.38-10.37-.07-15.23-.06-.62-.26-1.16-.48-1.73-2.43-2.42-4.71-5.07-7.25-7.36-1.19-1.07-3.26-2.9-3.06.17l7.82,7.82c.47.55.7,1.24.77,1.95.4,4.49-.35,9.58-.01,14.12.25,3.39,3.7,4.57,5.44,7.13v6.71l.06-.02ZM102.13,54.41c.9-.84.99-2.53.37-3.57-.2-.34-.7-.61-.79-.91-.9-3.03,4.08-4.7,4.51-7.66.27-1.85.25-7.05.03-8.94-.05-.41-.24-1.08-.41-1.46-.62-1.42-5.67-6.55-7.06-7.55-2.05-1.46-4.6-.71-6.88-.94-1.96-.19-4.12-3.41-5.59-4.77s-2.82-2.52-4.93-2.71-9.58-.27-11.43.29c-2.59.78-5.56,5.09-6.93,5.31-.52.08-4.73.1-5.06-.02-.41-.14-.7-1.34-2.06-1.5-4.24-.51-4.28,5.8-.18,5.44,1.47-.13,1.81-1.36,2.24-1.5.84-.29,3.72.08,4.9-.03,3.5-.33,4.82-4.63,7.66-5.42,1.4-.39,9.36-.38,11.02-.17,2.22.29,5.46,4.74,7.32,6.28,2.78,2.29,6.25.29,8.57,1.62.65.37,4.72,4.55,5.37,5.34,1.65,2,1.03,2.62,1.09,4.85.04,1.36.24,2.92.19,4.26-.14,3.59-4.27,4.43-4.72,7.51-.06.41.03,1.56-.07,1.71-.04.07-.47.14-.64.29-3.25,2.78.83,6.77,3.5,4.27l-.02-.02ZM85.6,74.28c-.49-.52-.83-.99-.92-1.72-.13-1.13-.13-5.49.21-6.42.65-1.8,5.9-5.98,7.44-7.85,2.36-2.85.52-6.67,1.3-9.91.45-1.89,3.38-3.13,3.95-5.05.33-1.12.33-6.33.16-7.62-.2-1.55-2.09-3.74-3.56-4.26-2.09-.74-3.61.41-5.69-1.27-2.38-1.92-4.36-5.65-7.65-5.95-1.71-.15-6.82-.2-8.24.42-2.32,1.02-5.66,6.04-7.74,6.36-2.83.44-7.45-.07-10.53,0-.79.02-1.69.34-2.54.18-.48-.09-.56-.8-1.02-1.19-2.8-2.42-6.7,1.19-4.5,4.16,1.63,2.21,4.39,1.33,5.51-.87,3.22.29,6.47,0,9.7-.07.51,0,1.08.19,1.7.19,4.98-.03,6.63-3.76,10.16-6.5.34-.16.68-.26,1.05-.31,1.33-.15,4.19-.18,5.56-.12,3.98.15,5.7,6.29,9.78,6.88,1.21.18,2.64-.19,3.78.3.98.42,1.92,1.83,2.04,2.89.13,1.16.13,5.07-.26,6.03-.72,1.79-3.48,2.95-3.92,5.09s.14,5.17-.07,7.41c-.08.89-.31,1.2-.85,1.87-1.8,2.21-7.55,6.53-7.95,9.04-.22,1.37-.22,6.02-.03,7.42.21,1.56,1.9,2.46,1.98,2.92.05.27-.19,1.31-.14,1.86.16,1.77,2.27,2.76,3.87,1.98,2.44-1.19,1.87-5.01-.93-5.27-1.04-.1-.69.44-1.67-.61h.02ZM84.75,89.06c.78.71,2.34,2.69,3.34,1.69.74-.74.16-1.44-.35-2.05-2.42-2.93-6.6-5.82-8.76-8.74-.27-.37-.46-.69-.55-1.15l-.04-16.11c.03-.51.3-.89.59-1.27,1.94-2.51,5.48-5.3,7.74-7.72.67-.72,1.41-1.9,1.52-2.89.17-1.48.18-5.67-.02-7.12-.12-.91-.85-1.96-1.43-2.65-.81-.98-5.22-4.86-5.43-5.43-.06-.17.12-1,.06-1.44-.31-2.51-4.02-3.2-5.18-.79s1.07,4.53,3.49,4c1.65,2.17,5.94,4.53,6.28,7.33.18,1.54.21,5.75-.66,6.95-2.02,2.77-6.07,5.55-8.24,8.41-.77,1-1.02,2.07-1.11,3.31-.28,4.07-.33,10.92,0,14.96.05.57.21,1.43.42,1.96.69,1.68,6.65,7.24,8.31,8.77l.02-.02ZM60.16,83.91c-.7.04-1.06.57-1.13,1.22-.44,3.86.15,8.88,0,12.92-.05,1.45-.2,2.97-.34,4.42-.39.7-.93,1.35-1.45,1.95-3.21,3.69-7.88,7.12-10.79,10.96-1.09,1.44-1.28,3.03-.64,4.72.88,2.34,7.72,8.2,9.82,10.4.69.73,2.66,2.69,3.02,3.43.7,1.42.24,3.18.37,4.73-.6.8-1.33,1.02-1.65,2.09-1.44,4.82,6.95,5.11,5.43-.09-.28-.94-1.26-1.36-1.36-1.69-.31-1.02,0-3.49-.2-4.73-.42-2.57-4.82-6.15-6.72-8.07-1.3-1.32-5.92-5.5-6.45-6.8-.45-1.1-.23-1.84.42-2.8,3.34-3.91,8.35-7.68,11.47-11.64,1.56-1.97,1.15-3.24,1.27-5.52.22-4.11.55-9.85.18-13.94-.07-.79-.28-1.61-1.25-1.56h0Z"/>
    <circle class="cls-3" cx="69.16" cy="47.57" r="5.76"/>
  </g>
</svg>